<svg xmlns="http://www.w3.org/2000/svg" width="241" height="241" fill="none"><path fill="url(#a)" d="M120.969 154.938c18.76 0 33.969-15.209 33.969-33.969 0-18.761-15.209-33.969-33.969-33.969C102.208 87 87 102.208 87 120.969c0 18.76 15.208 33.969 33.969 33.969z"/><path fill="#000" d="M120.968 151.124c16.654 0 30.155-13.501 30.155-30.155 0-16.654-13.501-30.155-30.155-30.155-16.654 0-30.155 13.501-30.155 30.155 0 16.654 13.501 30.155 30.155 30.155z"/><path fill="url(#b)" d="M120.969 87C102.207 87 87 102.207 87 120.969s15.207 33.969 33.969 33.969 33.969-15.207 33.969-33.969S139.731 87 120.969 87zm0 64.13c-16.653 0-30.155-13.502-30.155-30.155s13.502-30.155 30.155-30.155 30.155 13.502 30.155 30.155-13.502 30.155-30.155 30.155z" style="mix-blend-mode:multiply"/><g filter="url(#c)"><circle cx="120.969" cy="120.969" r="22.895" fill="#fff" fill-opacity=".1"/></g><circle cx="120.969" cy="120.969" r="22.594" stroke="#575757" stroke-opacity=".1" stroke-width=".603"/><path fill="url(#d)" d="M127.378 115.469h-17.847l4.457 3.064h13.39a.95.95 0 0 1 .947.947v2.286l3.064 2.107v-4.393a4.022 4.022 0 0 0-4.011-4.011z"/><path fill="url(#e)" d="M118 128.469h17.847l-4.457-3.064H118a.952.952 0 0 1-.947-.947v-2.287l-3.064-2.107v4.393a4.018 4.018 0 0 0 4.011 4.012z"/><path fill="url(#f)" d="M109.533 120.064h-3.064v8.404h3.064v-8.404z"/><path fill="url(#g)" d="M106.469 115.469v2.626l2.956 2.031.108-.062v-4.595h-3.064z"/><defs><linearGradient id="a" x1="99.327" x2="142.707" y1="94.019" y2="148.039" gradientUnits="userSpaceOnUse"><stop stop-color="#343A6F"/><stop offset="1" stop-color="#302A31"/></linearGradient><linearGradient id="d" x1="99.784" x2="171.289" y1="119.671" y2="119.671" gradientUnits="userSpaceOnUse"><stop stop-color="#A7A9AC"/><stop offset=".009" stop-color="#AAACAF"/><stop offset=".11" stop-color="#C9CACC"/><stop offset=".203" stop-color="#DFE0E1"/><stop offset=".286" stop-color="#ECEDEE"/><stop offset=".35" stop-color="#F1F2F2"/><stop offset=".468" stop-color="#EAEBEC"/><stop offset=".656" stop-color="#D7D8DA"/><stop offset=".889" stop-color="#B8BABC"/><stop offset="1" stop-color="#A7A9AC"/></linearGradient><linearGradient id="e" x1="99.784" x2="171.288" y1="124.267" y2="124.267" gradientUnits="userSpaceOnUse"><stop stop-color="#A7A9AC"/><stop offset=".009" stop-color="#AAACAF"/><stop offset=".11" stop-color="#C9CACC"/><stop offset=".203" stop-color="#DFE0E1"/><stop offset=".286" stop-color="#ECEDEE"/><stop offset=".35" stop-color="#F1F2F2"/><stop offset=".468" stop-color="#EAEBEC"/><stop offset=".656" stop-color="#D7D8DA"/><stop offset=".889" stop-color="#B8BABC"/><stop offset="1" stop-color="#A7A9AC"/></linearGradient><linearGradient id="f" x1="99.786" x2="171.291" y1="124.267" y2="124.267" gradientUnits="userSpaceOnUse"><stop stop-color="#A7A9AC"/><stop offset=".009" stop-color="#AAACAF"/><stop offset=".11" stop-color="#C9CACC"/><stop offset=".203" stop-color="#DFE0E1"/><stop offset=".286" stop-color="#ECEDEE"/><stop offset=".35" stop-color="#F1F2F2"/><stop offset=".468" stop-color="#EAEBEC"/><stop offset=".656" stop-color="#D7D8DA"/><stop offset=".889" stop-color="#B8BABC"/><stop offset="1" stop-color="#A7A9AC"/></linearGradient><linearGradient id="g" x1="99.786" x2="171.291" y1="117.798" y2="117.798" gradientUnits="userSpaceOnUse"><stop stop-color="#A7A9AC"/><stop offset=".009" stop-color="#AAACAF"/><stop offset=".11" stop-color="#C9CACC"/><stop offset=".203" stop-color="#DFE0E1"/><stop offset=".286" stop-color="#ECEDEE"/><stop offset=".35" stop-color="#F1F2F2"/><stop offset=".468" stop-color="#EAEBEC"/><stop offset=".656" stop-color="#D7D8DA"/><stop offset=".889" stop-color="#B8BABC"/><stop offset="1" stop-color="#A7A9AC"/></linearGradient><radialGradient id="b" cx="0" cy="0" r="1" gradientTransform="translate(120.969 120.969) scale(33.969)" gradientUnits="userSpaceOnUse"><stop offset=".89" stop-color="#fff"/><stop offset=".9" stop-color="#FAFAFA"/><stop offset=".92" stop-color="#ECECEC"/><stop offset=".94" stop-color="#D5D5D5"/><stop offset=".95" stop-color="#B6B6B6"/><stop offset=".97" stop-color="#8D8D8D"/><stop offset=".99" stop-color="#5B5B5B"/><stop offset="1" stop-color="#AB90F5"/></radialGradient><filter id="c" width="45.79" height="49.405" x="98.074" y="94.459" color-interpolation-filters="sRGB" filterUnits="userSpaceOnUse"><feFlood flood-opacity="0" result="BackgroundImageFix"/><feBlend in="SourceGraphic" in2="BackgroundImageFix" result="shape"/><feColorMatrix in="SourceAlpha" result="hardAlpha" values="0 0 0 0 0 0 0 0 0 0 0 0 0 0 0 0 0 0 127 0"/><feOffset dy="-3.615"/><feGaussianBlur stdDeviation="3.314"/><feComposite in2="hardAlpha" k2="-1" k3="1" operator="arithmetic"/><feColorMatrix values="0 0 0 0 0 0 0 0 0 0 0 0 0 0 0 0 0 0 0.25 0"/><feBlend in2="shape" result="effect1_innerShadow_283_355"/></filter></defs></svg>